<?xml version="1.0" encoding="UTF-8"?>
<svg version="1.1" xmlns="http://www.w3.org/2000/svg" width="694" height="694">
<path d="M0 0 C229.02 0 458.04 0 694 0 C694 229.02 694 458.04 694 694 C464.98 694 235.96 694 0 694 C0 464.98 0 235.96 0 0 Z " fill="#2168BA" transform="translate(0,0)"/>
<path d="M0 0 C1.09208015 -0.00855011 1.09208015 -0.00855011 2.20622253 -0.01727295 C3.74676075 -0.0266842 5.28731875 -0.03324145 6.82788086 -0.03710938 C9.12327119 -0.04668847 11.41771476 -0.0776935 13.71289062 -0.109375 C24.23480119 -0.18374854 34.06674908 1.04936771 44.35546875 3.203125 C45.41548096 3.41590088 46.47549316 3.62867676 47.56762695 3.84790039 C72.40818158 9.03244202 95.30872152 22.8998662 114.35546875 39.203125 C115.0103125 39.73550781 115.66515625 40.26789063 116.33984375 40.81640625 C120.86512718 44.53074287 124.62205832 48.70368003 128.35546875 53.203125 C128.98324219 53.94304687 129.61101562 54.68296875 130.2578125 55.4453125 C142.14386603 69.8027237 150.621071 85.90059767 157.35546875 103.203125 C158.2276001 103.1810498 159.09973145 103.15897461 159.99829102 103.13623047 C163.26362609 103.07763803 166.52283842 103.06443449 169.78833008 103.08105469 C171.1956954 103.07911861 172.60315865 103.05957394 174.01000977 103.02148438 C185.62793529 102.72496164 185.62793529 102.72496164 189.69116211 106.20166016 C191.516041 108.78472655 192.9473583 111.37375128 194.35546875 114.203125 C195.29702384 115.70512579 196.25320863 117.19809559 197.2265625 118.6796875 C198.08487725 120.06073529 198.94040036 121.44352241 199.79296875 122.828125 C200.23833984 123.54613281 200.68371094 124.26414062 201.14257812 125.00390625 C202.21610111 126.73539493 203.28617612 128.46902065 204.35546875 130.203125 C207.98547352 128.99312341 208.28594878 128.12720015 210.16796875 124.90625 C210.94527344 123.59140625 210.94527344 123.59140625 211.73828125 122.25 C212.27195312 121.32703125 212.805625 120.4040625 213.35546875 119.453125 C213.88914062 118.545625 214.4228125 117.638125 214.97265625 116.703125 C215.97279591 115.00139483 216.96929276 113.29751466 217.9609375 111.59082031 C218.42113281 110.80288086 218.88132812 110.01494141 219.35546875 109.203125 C219.77159424 108.28861572 220.18771973 107.37410645 220.61645508 106.43188477 C222.35546875 104.203125 222.35546875 104.203125 225.3581543 103.63549805 C226.55738525 103.66168213 227.75661621 103.68786621 228.9921875 103.71484375 C230.29091797 103.73095703 231.58964844 103.74707031 232.92773438 103.76367188 C234.29949574 103.80544891 235.67124052 103.84777365 237.04296875 103.890625 C238.42639257 103.91570755 239.80985952 103.93852082 241.19335938 103.95898438 C244.58181639 104.01801673 247.9681026 104.10032418 251.35546875 104.203125 C251.35546875 105.193125 251.35546875 106.183125 251.35546875 107.203125 C250.69546875 107.203125 250.03546875 107.203125 249.35546875 107.203125 C249.09443359 107.92516113 248.83339844 108.64719727 248.56445312 109.39111328 C247.31423275 112.299037 245.83911829 114.61472802 244.01171875 117.1953125 C243.01386353 118.61396606 243.01386353 118.61396606 241.99584961 120.0612793 C241.28952393 121.05683838 240.58319824 122.05239746 239.85546875 123.078125 C238.4081219 125.14401842 236.96150804 127.21042556 235.515625 129.27734375 C233.54962466 132.07971135 231.58258746 134.88127296 229.60888672 137.67822266 C228.15809331 139.74092147 226.72323279 141.81366517 225.29296875 143.890625 C224.87015625 144.48278809 224.44734375 145.07495117 224.01171875 145.68505859 C221.92337461 148.58218086 221.92337461 148.58218086 221.52050781 152.00073242 C222.68276449 155.0664393 224.37811342 157.57071192 226.1875 160.3046875 C226.57586029 160.89472061 226.96422058 161.48475372 227.36434937 162.09266663 C228.62695058 164.0080275 229.8974513 165.91800827 231.16796875 167.828125 C232.0341322 169.14003625 232.89977184 170.45229349 233.76489258 171.76489258 C237.57886341 177.54444578 241.41783961 183.30676834 245.28515625 189.05078125 C245.84485107 189.88335449 246.4045459 190.71592773 246.98120117 191.57373047 C247.99999518 193.08511942 249.02339063 194.5934198 250.05200195 196.09814453 C253.35546875 200.9847596 253.35546875 200.9847596 253.35546875 203.203125 C243.54032433 204.54818073 233.02387955 205.95447237 223.35546875 203.203125 C217.13739469 198.37767671 214.32476173 191.06852011 211.49560547 183.92578125 C209.90360342 180.12406672 207.99747039 176.39041172 205.35546875 173.203125 C204.69546875 173.203125 204.03546875 173.203125 203.35546875 173.203125 C202.08112814 174.99939596 200.90195986 176.86339552 199.765625 178.75 C199.4204332 179.31761047 199.07524139 179.88522095 198.71958923 180.47003174 C197.61215858 182.29365997 196.51471477 184.1230546 195.41796875 185.953125 C194.32305119 187.76779373 193.22608055 189.58118494 192.12705994 191.39337158 C191.12517126 193.04733395 190.12897148 194.70473838 189.13305664 196.36230469 C188.54645264 197.29977539 187.95984863 198.23724609 187.35546875 199.203125 C186.91605957 199.98042969 186.47665039 200.75773438 186.02392578 201.55859375 C184.35546875 203.203125 184.35546875 203.203125 181.44458008 203.65722656 C180.28724365 203.6362793 179.12990723 203.61533203 177.9375 203.59375 C176.68388672 203.58085937 175.43027344 203.56796875 174.13867188 203.5546875 C172.17317383 203.50441406 172.17317383 203.50441406 170.16796875 203.453125 C168.83270865 203.43305807 167.49741992 203.41480762 166.16210938 203.3984375 C162.89250729 203.35122303 159.62434683 203.28537684 156.35546875 203.203125 C156.26007813 204.20730469 156.1646875 205.21148437 156.06640625 206.24609375 C155.46851948 210.3702712 153.89448189 213.84465312 151.98046875 217.515625 C151.62960205 218.19858643 151.27873535 218.88154785 150.91723633 219.58520508 C143.77479279 233.24101306 135.89137202 245.91960179 125.35546875 257.203125 C124.84177734 257.76451172 124.32808594 258.32589844 123.79882812 258.90429688 C99.02882017 285.77091977 61.60756786 305.61750465 24.64355469 307.38012695 C20.46393629 307.44746227 16.28560606 307.50183681 12.10546875 307.515625 C11.34769135 307.51824341 10.58991394 307.52086182 9.80917358 307.52355957 C-1.67289499 307.52780618 -12.46136381 306.76255389 -23.59814453 303.75 C-25.56779095 303.22363303 -27.55750446 302.77419007 -29.546875 302.328125 C-52.95500835 296.82610835 -75.02140832 284.0209361 -92.51953125 267.703125 C-96.16324021 264.36138087 -98.8418251 263.18326911 -103.64453125 262.203125 C-105.64453125 260.203125 -105.64453125 260.203125 -105.953125 256.98828125 C-106.78065112 252.45792641 -108.76787562 250.00140485 -111.70703125 246.640625 C-117.31110447 239.9034828 -121.47694846 232.89939228 -125.64453125 225.203125 C-126.18078125 224.31496094 -126.71703125 223.42679688 -127.26953125 222.51171875 C-129.04880537 219.52435794 -130.31566722 216.41454641 -131.64453125 213.203125 C-132.11890625 212.1925 -132.59328125 211.181875 -133.08203125 210.140625 C-134.61995117 206.6567656 -135.42110876 203.08225825 -136.33203125 199.390625 C-138.31292477 192.18109392 -141.67629408 187.65084296 -146.64453125 182.203125 C-148.73094837 179.62987722 -150.18488223 177.31074562 -151.33203125 174.203125 C-151.58339844 173.543125 -151.83476562 172.883125 -152.09375 172.203125 C-152.64453125 170.203125 -152.64453125 170.203125 -152.64453125 166.203125 C-153.30453125 166.203125 -153.96453125 166.203125 -154.64453125 166.203125 C-155.34577078 147.60409505 -155.19927612 135.75136595 -143.51171875 120.67578125 C-139.69326665 115.61912815 -137.61998905 110.66036494 -135.64453125 104.703125 C-134.03059831 99.83610849 -132.3939006 95.56576066 -129.64453125 91.203125 C-129.05001471 89.71552414 -128.48763615 88.21470189 -127.95703125 86.703125 C-114.06035964 51.22450127 -80.37609642 26.00348256 -47.00390625 10.48046875 C-36.29519559 5.86911868 -25.05985348 3.4155722 -13.64453125 1.203125 C-12.24533447 0.93157593 -12.24533447 0.93157593 -10.81787109 0.65454102 C-7.20144426 0.1400947 -3.64494832 0.02273732 0 0 Z " fill="#2268BA" transform="translate(337.64453125,193.796875)"/>
<path d="M0 0 C1.09208015 -0.00855011 1.09208015 -0.00855011 2.20622253 -0.01727295 C3.74676075 -0.0266842 5.28731875 -0.03324145 6.82788086 -0.03710938 C9.12327119 -0.04668847 11.41771476 -0.0776935 13.71289062 -0.109375 C24.23480119 -0.18374854 34.06674908 1.04936771 44.35546875 3.203125 C45.41548096 3.41590088 46.47549316 3.62867676 47.56762695 3.84790039 C72.40818158 9.03244202 95.30872152 22.8998662 114.35546875 39.203125 C115.0103125 39.73550781 115.66515625 40.26789063 116.33984375 40.81640625 C120.86512718 44.53074287 124.62205832 48.70368003 128.35546875 53.203125 C128.98324219 53.94304687 129.61101562 54.68296875 130.2578125 55.4453125 C142.14386603 69.8027237 150.621071 85.90059767 157.35546875 103.203125 C158.2276001 103.1810498 159.09973145 103.15897461 159.99829102 103.13623047 C163.26362609 103.07763803 166.52283842 103.06443449 169.78833008 103.08105469 C171.1956954 103.07911861 172.60315865 103.05957394 174.01000977 103.02148438 C185.62793529 102.72496164 185.62793529 102.72496164 189.69116211 106.20166016 C191.516041 108.78472655 192.9473583 111.37375128 194.35546875 114.203125 C195.29702384 115.70512579 196.25320863 117.19809559 197.2265625 118.6796875 C198.08487725 120.06073529 198.94040036 121.44352241 199.79296875 122.828125 C200.23833984 123.54613281 200.68371094 124.26414062 201.14257812 125.00390625 C202.21610111 126.73539493 203.28617612 128.46902065 204.35546875 130.203125 C207.98547352 128.99312341 208.28594878 128.12720015 210.16796875 124.90625 C210.94527344 123.59140625 210.94527344 123.59140625 211.73828125 122.25 C212.27195312 121.32703125 212.805625 120.4040625 213.35546875 119.453125 C213.88914062 118.545625 214.4228125 117.638125 214.97265625 116.703125 C215.97279591 115.00139483 216.96929276 113.29751466 217.9609375 111.59082031 C218.42113281 110.80288086 218.88132812 110.01494141 219.35546875 109.203125 C219.77159424 108.28861572 220.18771973 107.37410645 220.61645508 106.43188477 C222.35546875 104.203125 222.35546875 104.203125 225.3581543 103.63549805 C226.55738525 103.66168213 227.75661621 103.68786621 228.9921875 103.71484375 C230.29091797 103.73095703 231.58964844 103.74707031 232.92773438 103.76367188 C234.29949574 103.80544891 235.67124052 103.84777365 237.04296875 103.890625 C238.42639257 103.91570755 239.80985952 103.93852082 241.19335938 103.95898438 C244.58181639 104.01801673 247.9681026 104.10032418 251.35546875 104.203125 C251.35546875 105.193125 251.35546875 106.183125 251.35546875 107.203125 C250.69546875 107.203125 250.03546875 107.203125 249.35546875 107.203125 C249.09443359 107.92516113 248.83339844 108.64719727 248.56445312 109.39111328 C247.31423275 112.299037 245.83911829 114.61472802 244.01171875 117.1953125 C243.01386353 118.61396606 243.01386353 118.61396606 241.99584961 120.0612793 C241.28952393 121.05683838 240.58319824 122.05239746 239.85546875 123.078125 C238.4081219 125.14401842 236.96150804 127.21042556 235.515625 129.27734375 C233.54962466 132.07971135 231.58258746 134.88127296 229.60888672 137.67822266 C228.15809331 139.74092147 226.72323279 141.81366517 225.29296875 143.890625 C224.87015625 144.48278809 224.44734375 145.07495117 224.01171875 145.68505859 C221.92337461 148.58218086 221.92337461 148.58218086 221.52050781 152.00073242 C222.68276449 155.0664393 224.37811342 157.57071192 226.1875 160.3046875 C226.57586029 160.89472061 226.96422058 161.48475372 227.36434937 162.09266663 C228.62695058 164.0080275 229.8974513 165.91800827 231.16796875 167.828125 C232.0341322 169.14003625 232.89977184 170.45229349 233.76489258 171.76489258 C237.57886341 177.54444578 241.41783961 183.30676834 245.28515625 189.05078125 C245.84485107 189.88335449 246.4045459 190.71592773 246.98120117 191.57373047 C247.99999518 193.08511942 249.02339063 194.5934198 250.05200195 196.09814453 C253.35546875 200.9847596 253.35546875 200.9847596 253.35546875 203.203125 C243.54032433 204.54818073 233.02387955 205.95447237 223.35546875 203.203125 C217.13739469 198.37767671 214.32476173 191.06852011 211.49560547 183.92578125 C209.90360342 180.12406672 207.99747039 176.39041172 205.35546875 173.203125 C204.69546875 173.203125 204.03546875 173.203125 203.35546875 173.203125 C202.08112814 174.99939596 200.90195986 176.86339552 199.765625 178.75 C199.4204332 179.31761047 199.07524139 179.88522095 198.71958923 180.47003174 C197.61215858 182.29365997 196.51471477 184.1230546 195.41796875 185.953125 C194.32305119 187.76779373 193.22608055 189.58118494 192.12705994 191.39337158 C191.12517126 193.04733395 190.12897148 194.70473838 189.13305664 196.36230469 C188.54645264 197.29977539 187.95984863 198.23724609 187.35546875 199.203125 C186.91605957 199.98042969 186.47665039 200.75773438 186.02392578 201.55859375 C184.35546875 203.203125 184.35546875 203.203125 181.44458008 203.65722656 C180.28724365 203.6362793 179.12990723 203.61533203 177.9375 203.59375 C176.68388672 203.58085937 175.43027344 203.56796875 174.13867188 203.5546875 C172.17317383 203.50441406 172.17317383 203.50441406 170.16796875 203.453125 C168.83270865 203.43305807 167.49741992 203.41480762 166.16210938 203.3984375 C162.89250729 203.35122303 159.62434683 203.28537684 156.35546875 203.203125 C156.26007813 204.20730469 156.1646875 205.21148437 156.06640625 206.24609375 C155.46851948 210.3702712 153.89448189 213.84465312 151.98046875 217.515625 C151.62960205 218.19858643 151.27873535 218.88154785 150.91723633 219.58520508 C143.77479279 233.24101306 135.89137202 245.91960179 125.35546875 257.203125 C124.84177734 257.76451172 124.32808594 258.32589844 123.79882812 258.90429688 C99.02882017 285.77091977 61.60756786 305.61750465 24.64355469 307.38012695 C20.46393629 307.44746227 16.28560606 307.50183681 12.10546875 307.515625 C11.34769135 307.51824341 10.58991394 307.52086182 9.80917358 307.52355957 C-1.67289499 307.52780618 -12.46136381 306.76255389 -23.59814453 303.75 C-25.56779095 303.22363303 -27.55750446 302.77419007 -29.546875 302.328125 C-52.95500835 296.82610835 -75.02140832 284.0209361 -92.51953125 267.703125 C-96.16324021 264.36138087 -98.8418251 263.18326911 -103.64453125 262.203125 C-105.64453125 260.203125 -105.64453125 260.203125 -105.953125 256.98828125 C-106.78065112 252.45792641 -108.76787562 250.00140485 -111.70703125 246.640625 C-117.31110447 239.9034828 -121.47694846 232.89939228 -125.64453125 225.203125 C-126.18078125 224.31496094 -126.71703125 223.42679688 -127.26953125 222.51171875 C-129.04880537 219.52435794 -130.31566722 216.41454641 -131.64453125 213.203125 C-132.11890625 212.1925 -132.59328125 211.181875 -133.08203125 210.140625 C-134.61995117 206.6567656 -135.42110876 203.08225825 -136.33203125 199.390625 C-138.31292477 192.18109392 -141.67629408 187.65084296 -146.64453125 182.203125 C-148.73094837 179.62987722 -150.18488223 177.31074562 -151.33203125 174.203125 C-151.58339844 173.543125 -151.83476562 172.883125 -152.09375 172.203125 C-152.64453125 170.203125 -152.64453125 170.203125 -152.64453125 166.203125 C-153.30453125 166.203125 -153.96453125 166.203125 -154.64453125 166.203125 C-155.34577078 147.60409505 -155.19927612 135.75136595 -143.51171875 120.67578125 C-139.69326665 115.61912815 -137.61998905 110.66036494 -135.64453125 104.703125 C-134.03059831 99.83610849 -132.3939006 95.56576066 -129.64453125 91.203125 C-129.05001471 89.71552414 -128.48763615 88.21470189 -127.95703125 86.703125 C-114.06035964 51.22450127 -80.37609642 26.00348256 -47.00390625 10.48046875 C-36.29519559 5.86911868 -25.05985348 3.4155722 -13.64453125 1.203125 C-12.24533447 0.93157593 -12.24533447 0.93157593 -10.81787109 0.65454102 C-7.20144426 0.1400947 -3.64494832 0.02273732 0 0 Z M-99.64453125 52.203125 C-102.8333363 55.7397997 -105.78531714 59.39647899 -108.64453125 63.203125 C-109.24652344 64.00105469 -109.84851563 64.79898438 -110.46875 65.62109375 C-116.91486061 74.50079218 -122.44571906 84.06648305 -126.64453125 94.203125 C-127.10214844 95.24855469 -127.55976563 96.29398437 -128.03125 97.37109375 C-128.46050781 98.36753906 -128.88976562 99.36398437 -129.33203125 100.390625 C-129.98751953 101.89689453 -129.98751953 101.89689453 -130.65625 103.43359375 C-131.8685872 106.34091657 -131.8685872 106.34091657 -131.64453125 110.203125 C-128.78472088 109.28167667 -125.98833975 108.35630147 -123.2421875 107.1328125 C-116.16236185 104.18743049 -109.62739098 103.80087189 -102.01953125 103.765625 C-101.054104 103.7557959 -100.08867676 103.7459668 -99.09399414 103.73583984 C-85.11254161 103.90034154 -72.81275281 109.44269596 -62.64453125 119.01171875 C-53.35106831 129.19459514 -49.22732175 142.80901915 -49.43359375 156.40234375 C-50.54366877 171.14167312 -56.80611873 183.24019006 -67.64453125 193.203125 C-80.83583823 202.98615171 -94.66039106 205.23806933 -110.64453125 204.203125 C-117.62160874 203.09461736 -123.44013684 200.47453296 -129.64453125 197.203125 C-130.30453125 197.203125 -130.96453125 197.203125 -131.64453125 197.203125 C-131.14654755 200.93800277 -130.76961369 203.01550135 -128.64453125 206.203125 C-127.89104508 208.30212219 -127.26006622 210.42227013 -126.62109375 212.55859375 C-122.83863338 222.80149644 -116.49539378 232.05334938 -110.64453125 241.203125 C-110.27247559 241.79673828 -109.90041992 242.39035156 -109.51708984 243.00195312 C-107.51916491 246.12880636 -105.59109817 248.9219119 -102.64453125 251.203125 C-99.14890265 251.96763658 -96.14927874 251.84949237 -92.64453125 251.203125 C-92.76054687 251.89277344 -92.8765625 252.58242188 -92.99609375 253.29296875 C-93.42360008 257.74514179 -93.58741075 260.91473115 -90.875 264.62109375 C-88.24564864 267.02106712 -85.5345408 269.12395468 -82.64453125 271.203125 C-81.12666016 272.33041016 -81.12666016 272.33041016 -79.578125 273.48046875 C-61.335828 286.57463285 -41.65830717 295.61084724 -19.64453125 300.203125 C-18.66226563 300.41582031 -17.68 300.62851562 -16.66796875 300.84765625 C20.85225318 308.36251338 61.03408946 299.89426769 93.11328125 279.40234375 C97.75491944 276.25385905 102.09832714 272.84983848 106.35546875 269.203125 C107.56297866 268.20213087 108.77118553 267.20197611 109.98046875 266.203125 C110.76421875 265.543125 111.54796875 264.883125 112.35546875 264.203125 C111.71609375 263.6875 111.07671875 263.171875 110.41796875 262.640625 C107.79755194 259.54376877 107.66157058 257.18244877 107.35546875 253.203125 C108.78957243 252.95358495 110.22806947 252.72919858 111.66796875 252.515625 C112.86873047 252.32419922 112.86873047 252.32419922 114.09375 252.12890625 C116.35546875 252.203125 116.35546875 252.203125 118.1484375 253.68359375 C118.54675781 254.18503906 118.94507813 254.68648437 119.35546875 255.203125 C122.77596694 253.77826631 124.45413948 252.1405009 126.6328125 249.16796875 C127.52709961 247.95270508 127.52709961 247.95270508 128.43945312 246.71289062 C129.05111328 245.86404297 129.66277344 245.01519531 130.29296875 244.140625 C131.2046582 242.90795898 131.2046582 242.90795898 132.13476562 241.65039062 C139.03956229 233.14378303 139.03956229 233.14378303 142.35546875 223.203125 C143.01546875 223.203125 143.67546875 223.203125 144.35546875 223.203125 C145.71305605 220.21354445 147.03753249 217.21037476 148.35546875 214.203125 C148.84080078 213.13578125 148.84080078 213.13578125 149.3359375 212.046875 C152.15165026 205.51901848 153.88553164 198.77122918 155.60522461 191.89111328 C157.18898689 185.58818916 157.18898689 185.58818916 158.44140625 182.69140625 C161.48990413 174.39271758 160.57429236 164.60014913 160.59570312 155.85742188 C160.60539087 153.4722989 160.63648464 151.08804617 160.66796875 148.703125 C160.72402605 140.44617946 160.26837353 132.9573722 158.08227539 124.92407227 C157.36749981 122.24816569 156.92005106 119.63220326 156.54296875 116.890625 C155.22455727 109.32360784 152.22275238 102.29256255 149.35546875 95.203125 C149.02546875 94.3678125 148.69546875 93.5325 148.35546875 92.671875 C136.88892475 65.23407328 115.9722227 43.28937776 91.35546875 27.203125 C90.75025391 26.80657715 90.14503906 26.4100293 89.52148438 26.00146484 C28.44740253 -13.188318 -50.47311281 2.51749564 -99.64453125 52.203125 Z " fill="#DAE2FB" transform="translate(337.64453125,193.796875)"/>
<path d="M0 0 C1.56918639 1.21527371 3.11164825 2.46586504 4.625 3.75 C5.40488281 4.39582031 6.18476563 5.04164063 6.98828125 5.70703125 C14.37186663 12.39569095 19.22465135 20.96189226 21.5625 30.625 C21.6186424 31.9990113 21.63198041 33.3748599 21.625 34.75 C21.69654297 36.55791016 21.69654297 36.55791016 21.76953125 38.40234375 C22.26129057 54.00080022 18.23461004 65.78538942 8.375 78.0625 C-1.35275841 88.41300674 -15.23145281 93.71125848 -29.25537109 94.29077148 C-44.0650362 94.43024875 -58.22625784 89.87212096 -69.125 79.5625 C-80.39568303 67.58487449 -84.92351929 55.39045857 -84.65625 39.18359375 C-84.38961301 32.97495144 -82.69837249 27.48558622 -80.375 21.75 C-80.03597656 20.86828125 -79.69695312 19.9865625 -79.34765625 19.078125 C-74.70086981 8.42855039 -65.68884727 0.74308794 -55.375 -4.25 C-54.55386719 -4.6625 -53.73273438 -5.075 -52.88671875 -5.5 C-36.30982671 -12.40903749 -14.82579178 -9.71032775 0 0 Z " fill="#FAFCFD" transform="translate(381.375,305.25)"/>
<path d="M0 0 C57.40086207 0 57.40086207 0 69 9 C76.96816011 17.34483677 77.45936198 24.32893829 77.27734375 35.49609375 C76.95033464 43.35570068 74.13213678 49.72278789 68.765625 55.46875 C59.38593244 63.60335063 49.45154605 64.29233664 37.5625 64.125 C33.416875 64.08375 29.27125 64.0425 25 64 C25 75.55 25 87.1 25 99 C16.75 99 8.5 99 0 99 C0 66.33 0 33.66 0 0 Z " fill="#FBFCFD" transform="translate(415,298)"/>
<path d="M0 0 C1.19923096 0.02618408 2.39846191 0.05236816 3.6340332 0.0793457 C4.93276367 0.09545898 6.23149414 0.11157227 7.56958008 0.12817383 C8.94134144 0.16995087 10.31308623 0.21227561 11.68481445 0.25512695 C13.06823827 0.2802095 14.45170523 0.30302278 15.83520508 0.32348633 C19.22366209 0.38251868 22.6099483 0.46482613 25.99731445 0.56762695 C25.99731445 1.55762695 25.99731445 2.54762695 25.99731445 3.56762695 C25.33731445 3.56762695 24.67731445 3.56762695 23.99731445 3.56762695 C23.60576172 4.65068115 23.60576172 4.65068115 23.20629883 5.75561523 C21.95607846 8.66353895 20.48096399 10.97922997 18.65356445 13.55981445 C17.98832764 14.5055835 17.32309082 15.45135254 16.63769531 16.42578125 C15.93136963 17.42134033 15.22504395 18.41689941 14.49731445 19.44262695 C13.0499676 21.50852037 11.60335374 23.57492752 10.1574707 25.6418457 C8.19147036 28.44421331 6.22443317 31.24577491 4.25073242 34.04272461 C2.79993901 36.10542343 1.36507849 38.17816712 -0.06518555 40.25512695 C-0.48799805 40.84729004 -0.91081055 41.43945312 -1.34643555 42.04956055 C-3.43477969 44.94668281 -3.43477969 44.94668281 -3.83764648 48.36523438 C-2.6753898 51.43094125 -0.98004088 53.93521388 0.8293457 56.66918945 C1.21770599 57.25922256 1.60606628 57.84925568 2.00619507 58.45716858 C3.26879629 60.37252945 4.53929701 62.28251022 5.80981445 64.19262695 C6.67597791 65.5045382 7.54161754 66.81679544 8.40673828 68.12939453 C12.22070911 73.90894773 16.05968531 79.67127029 19.92700195 85.4152832 C20.48669678 86.24785645 21.0463916 87.08042969 21.62304688 87.93823242 C22.64184088 89.44962137 23.66523633 90.95792175 24.69384766 92.46264648 C27.99731445 97.34926156 27.99731445 97.34926156 27.99731445 99.56762695 C18.18217003 100.91268268 7.66572525 102.31897433 -2.00268555 99.56762695 C-8.22075961 94.74217866 -11.03339257 87.43302207 -13.86254883 80.2902832 C-15.45455088 76.48856868 -17.36068391 72.75491367 -20.00268555 69.56762695 C-20.66268555 69.56762695 -21.32268555 69.56762695 -22.00268555 69.56762695 C-23.27702616 71.36389792 -24.45619444 73.22789747 -25.5925293 75.11450195 C-25.9377211 75.68211243 -26.2829129 76.2497229 -26.63856506 76.83453369 C-27.74599572 78.65816193 -28.84343953 80.48755655 -29.94018555 82.31762695 C-31.0351031 84.13229568 -32.13207375 85.9456869 -33.23109436 87.75787354 C-34.23298304 89.4118359 -35.22918282 91.06924033 -36.22509766 92.72680664 C-36.81170166 93.66427734 -37.39830566 94.60174805 -38.00268555 95.56762695 C-38.43758301 96.34493164 -38.87248047 97.12223633 -39.32055664 97.9230957 C-41.00268555 99.56762695 -41.00268555 99.56762695 -44.00537109 100.02172852 C-45.20460205 100.00078125 -46.40383301 99.97983398 -47.6394043 99.95825195 C-48.93813477 99.94536133 -50.23686523 99.9324707 -51.57495117 99.91918945 C-52.94670657 99.88576797 -54.31845136 99.85190818 -55.69018555 99.81762695 C-57.07362366 99.79756071 -58.45708939 99.77931014 -59.84057617 99.76293945 C-63.22864204 99.71571902 -66.61531796 99.64986765 -70.00268555 99.56762695 C-69.34268555 98.24762695 -68.68268555 96.92762695 -68.00268555 95.56762695 C-67.34268555 95.56762695 -66.68268555 95.56762695 -66.00268555 95.56762695 C-65.76807617 94.71426758 -65.5334668 93.8609082 -65.29174805 92.98168945 C-63.8477646 89.15732118 -61.80931108 86.17764294 -59.37768555 82.94262695 C-58.4685806 81.70287875 -57.56105061 80.46197424 -56.6550293 79.2199707 C-56.20498535 78.60492676 -55.75494141 77.98988281 -55.29125977 77.35620117 C-52.76006185 73.84283324 -50.40394135 70.21406513 -48.03393555 66.59106445 C-46.5524806 64.38597574 -45.04637446 62.24258176 -43.47143555 60.10668945 C-43.04999268 59.52669189 -42.6285498 58.94669434 -42.19433594 58.34912109 C-41.00409862 56.71772905 -39.79872249 55.09741367 -38.5925293 53.4777832 C-36.75181525 50.75980957 -36.75181525 50.75980957 -37.24804688 48.13427734 C-38.01708512 45.51865165 -38.92493535 43.81078152 -40.48706055 41.59106445 C-41.00413574 40.84671143 -41.52121094 40.1023584 -42.05395508 39.33544922 C-42.61453613 38.54581787 -43.17511719 37.75618652 -43.75268555 36.94262695 C-44.93264851 35.25141286 -46.11232739 33.56000053 -47.29174805 31.8684082 C-47.90179687 30.99909668 -48.5118457 30.12978516 -49.14038086 29.23413086 C-52.17330112 24.89150434 -55.14725292 20.50886078 -58.12768555 16.13012695 C-59.19168961 14.56817908 -60.25672107 13.00693034 -61.32299805 11.4465332 C-61.7691748 10.79241455 -62.21535156 10.1382959 -62.67504883 9.46435547 C-63.63239229 8.09664651 -64.63728201 6.76179165 -65.67016602 5.45019531 C-67.00268555 3.56762695 -67.00268555 3.56762695 -67.00268555 1.56762695 C-41.23832908 -1.12708331 -41.23832908 -1.12708331 -34.58276367 3.10717773 C-30.96616696 6.95626995 -28.87317895 11.43520697 -26.96313477 16.3137207 C-25.39800984 19.98663208 -23.21119453 23.25345247 -21.00268555 26.56762695 C-17.37268077 25.35762536 -17.07220551 24.4917021 -15.19018555 21.27075195 C-14.41288086 19.9559082 -14.41288086 19.9559082 -13.61987305 18.61450195 C-13.08620117 17.6915332 -12.5525293 16.76856445 -12.00268555 15.81762695 C-11.46901367 14.91012695 -10.9353418 14.00262695 -10.38549805 13.06762695 C-9.38535839 11.36589679 -8.38886153 9.66201662 -7.3972168 7.95532227 C-6.93702148 7.16738281 -6.47682617 6.37944336 -6.00268555 5.56762695 C-5.37849731 4.19586304 -5.37849731 4.19586304 -4.74169922 2.79638672 C-3.00268555 0.56762695 -3.00268555 0.56762695 0 0 Z " fill="#FAFBFD" transform="translate(563.002685546875,297.432373046875)"/>
<path d="M0 0 C8.58 0 17.16 0 26 0 C26 25.41 26 50.82 26 77 C40.19 77 54.38 77 69 77 C69 84.26 69 91.52 69 99 C46.23 99 23.46 99 0 99 C0 66.33 0 33.66 0 0 Z " fill="#F8FAFC" transform="translate(113,298)"/>
<path d="M0 0 C5.70369432 4.3844725 9.23296264 8.92426996 11 16 C11.39387341 19.45039929 11.42109034 22.84292137 11.375 26.3125 C11.38660156 27.20517578 11.39820313 28.09785156 11.41015625 29.01757812 C11.40628906 29.87416016 11.40242188 30.73074219 11.3984375 31.61328125 C11.39505371 32.38454346 11.39166992 33.15580566 11.38818359 33.95043945 C10.90094584 36.52299349 9.90709951 37.26683695 8 39 C7.46375 40.093125 6.9275 41.18625 6.375 42.3125 C3.61816429 47.34532798 -1.46048224 50.76493423 -6.8359375 52.640625 C-15.43343672 54.06836855 -24.26431516 54.11554391 -31.9140625 49.6171875 C-37.53480419 45.25953383 -40.58957837 39.60966619 -43 33 C-43.28071807 30.25061423 -43.4322737 27.79592815 -43.375 25.0625 C-43.36412354 24.35738281 -43.35324707 23.65226562 -43.34204102 22.92578125 C-43.07399848 14.18658312 -40.82629799 9.12729046 -34.8984375 2.76171875 C-25.37754878 -6.07350926 -10.96212699 -6.46112121 0 0 Z " fill="#256ABB" transform="translate(366,323)"/>
<path d="M0 0 C5.68304991 3.74037468 8.89499666 7.56116624 11 14 C11.495 15.485 11.495 15.485 12 17 C13.4028228 36.90004344 13.4028228 36.90004344 7 45 C1.94198466 50.53577449 -2.68829779 53.56065594 -10.296875 54.3359375 C-19.13002724 54.43586004 -26.53705145 54.02717243 -33.3203125 47.90625 C-39.72763279 41.01665829 -41.34844733 35.9259633 -41.3125 26.6875 C-41.33666992 25.46256836 -41.33666992 25.46256836 -41.36132812 24.21289062 C-41.36814807 15.65386049 -39.11482167 9.25702683 -33 3 C-23.25014037 -4.46797759 -11.10976983 -5.2054054 0 0 Z " fill="#2369BA" transform="translate(250,322)"/>
<path d="M0 0 C5.40194665 2.76099495 5.40194665 2.76099495 6.92578125 5.91796875 C7.40754231 7.43861119 7.86175102 8.9681659 8.29296875 10.50390625 C9.02858354 13.10091097 9.93726457 15.55611855 10.9375 18.0625 C11.38416016 19.19365234 11.38416016 19.19365234 11.83984375 20.34765625 C15.93569172 29.71156458 21.23882824 38.32086451 26.69726562 46.94042969 C27.78638931 48.66229015 28.8564969 50.39615958 29.921875 52.1328125 C32.21301354 55.52587958 33.62327314 57.61013045 37.6484375 58.75 C40.14519981 59.02974928 42.49365823 59.12607353 45 59 C44.93296875 59.67804688 44.8659375 60.35609375 44.796875 61.0546875 C44.71514929 65.9718513 45.06360825 68.9364061 48.38671875 72.7109375 C51.51254158 75.31245458 54.66939877 77.66737676 58 80 C58.83402344 80.62648438 59.66804688 81.25296875 60.52734375 81.8984375 C77.69163963 94.52176325 97.20776057 102.66254608 118 107 C119.47339844 107.31904297 119.47339844 107.31904297 120.9765625 107.64453125 C158.49998248 115.16002891 198.66892533 106.68739124 230.75390625 86.203125 C235.39594788 83.05256967 239.72683353 79.6283068 244 76 C245.66323299 74.66238586 247.32905198 73.32796395 249 72 C248.01 71.2265625 248.01 71.2265625 247 70.4375 C245 68 245 68 244.5625 64.375 C244.706875 63.26125 244.85125 62.1475 245 61 C248.49124017 58.67250655 249.89222251 58.49700684 254 59 C257.18455793 61.0951039 257.87126889 62.49497796 258.8125 66.1875 C256.19595021 78.4651567 237.55129136 87.66412118 227.765625 94.140625 C204.4225753 108.45597592 176.87739784 115.22302026 149.75 115.3125 C148.9922226 115.31511841 148.23444519 115.31773682 147.45370483 115.32043457 C135.97163626 115.32468118 125.18316744 114.55942889 114.04638672 111.546875 C112.0767403 111.02050803 110.08702679 110.57106507 108.09765625 110.125 C84.6895229 104.62298335 62.62312293 91.8178111 45.125 75.5 C41.48129104 72.15825587 38.80270615 70.98014411 34 70 C32 68 32 68 31.69140625 64.78515625 C30.86388013 60.25480141 28.87665563 57.79827985 25.9375 54.4375 C20.33342678 47.7003578 16.16758279 40.69626728 12 33 C11.46375 32.11183594 10.9275 31.22367187 10.375 30.30859375 C8.59572588 27.32123294 7.32886403 24.21142141 6 21 C5.505 19.989375 5.01 18.97875 4.5 17.9375 C2.03729891 12.28240861 1.17746571 6.02094169 0 0 Z " fill="#90A6F9" transform="translate(200,386)"/>
<path d="M0 0 C3.31384783 1.38805954 4.870426 2.80934737 6.84765625 5.7890625 C7.36537598 6.55855225 7.8830957 7.32804199 8.41650391 8.12084961 C8.95968262 8.94721924 9.50286133 9.77358887 10.0625 10.625 C11.21718641 12.34783155 12.37213906 14.07048468 13.52734375 15.79296875 C14.39528564 17.09693604 14.39528564 17.09693604 15.28076172 18.42724609 C17.86072107 22.28802594 20.49084037 26.1135895 23.125 29.9375 C23.57367432 30.59250488 24.02234863 31.24750977 24.48461914 31.92236328 C26.19763541 34.41814422 27.86898999 36.85062666 29.8671875 39.12890625 C31 41 31 41 30.8828125 43.44140625 C29.8858277 46.33089759 28.62103616 48.42426613 26.875 50.9375 C26.16472656 51.96875 25.45445312 53 24.72265625 54.0625 C24.30516113 54.66320312 23.88766602 55.26390625 23.45751953 55.8828125 C21.71944182 58.40753778 20.01411901 60.95317455 18.30859375 63.5 C16.9768288 65.47934587 15.64479543 67.45851116 14.3125 69.4375 C13.67103027 70.39712646 13.02956055 71.35675293 12.36865234 72.34545898 C9.21709394 76.99750618 6.1828677 81.23301972 2 85 C2.50888453 79.65671246 3.22166258 74.54915728 4.5 69.3359375 C6.22112876 61.29503906 6.24070269 53.30820531 6.25 45.125 C6.25133942 44.43191742 6.25267883 43.73883484 6.25405884 43.02474976 C6.24959547 32.38361077 5.57420998 22.36641314 3 12 C2.71382813 10.78570312 2.42765625 9.57140625 2.1328125 8.3203125 C1.45750648 5.53547909 0.75121705 2.76511808 0 0 Z " fill="#276CBC" transform="translate(496,303)"/>
<path d="M0 0 C2.495625 -0.061875 4.99125 -0.12375 7.5625 -0.1875 C8.33408447 -0.21481201 9.10566895 -0.24212402 9.90063477 -0.27026367 C16.0138686 -0.34271566 20.20564444 1.28039658 25.4375 4.5 C28.07659316 8.72254905 27.69102058 13.17681593 27 18 C25.36630797 21.44890539 24.27418481 23.29292396 20.9375 25.14453125 C16.82101456 26.34334815 12.94715723 26.21173597 8.6875 26.125 C5.820625 26.08375 2.95375 26.0425 0 26 C0 17.42 0 8.84 0 0 Z " fill="#276CBC" transform="translate(440,317)"/>
<path d="M0 0 C5.40194665 2.76099495 5.40194665 2.76099495 6.92578125 5.91796875 C7.40754231 7.43861119 7.86175102 8.9681659 8.29296875 10.50390625 C9.02858354 13.10091097 9.93726457 15.55611855 10.9375 18.0625 C11.38416016 19.19365234 11.38416016 19.19365234 11.83984375 20.34765625 C14.81560684 27.15083181 18.37975708 33.54385012 22.25 39.875 C22.72800049 40.65858887 23.20600098 41.44217773 23.69848633 42.24951172 C27.39280994 48.21399009 31.36786068 53.71750301 36 59 C35.34 59.66 34.68 60.32 34 61 C33.59952556 63.32275177 33.2602896 65.65739357 33 68 C32.67 68 32.34 68 32 68 C31.93941406 66.98035156 31.87882812 65.96070313 31.81640625 64.91015625 C30.86646473 60.36043632 28.90942657 57.8357518 25.9375 54.4375 C20.33342678 47.7003578 16.16758279 40.69626728 12 33 C11.46375 32.11183594 10.9275 31.22367187 10.375 30.30859375 C8.59572588 27.32123294 7.32886403 24.21142141 6 21 C5.505 19.989375 5.01 18.97875 4.5 17.9375 C2.03729891 12.28240861 1.17746571 6.02094169 0 0 Z " fill="#8BA4F4" transform="translate(200,386)"/>
<path d="M0 0 C9 0 9 0 11.625 1.625 C13 4 13 4 12.9375 7.125 C12 10 12 10 9 12 C5.8125 12.125 5.8125 12.125 3 12 C3 13.98 3 15.96 3 18 C2.01 18 1.02 18 0 18 C0 12.06 0 6.12 0 0 Z " fill="#D2AE33" transform="translate(493,445)"/>
<path d="M0 0 C0 3.96 0 7.92 0 12 C-1.60875 12.04125 -3.2175 12.0825 -4.875 12.125 C-5.77992188 12.14820313 -6.68484375 12.17140625 -7.6171875 12.1953125 C-10 12 -10 12 -12 10 C-12.30078125 8.125 -12.30078125 8.125 -12.3125 6 C-12.32925781 5.29875 -12.34601563 4.5975 -12.36328125 3.875 C-12.24339844 3.25625 -12.12351563 2.6375 -12 2 C-7.7975546 -0.80163026 -4.99895065 -0.14489712 0 0 Z " fill="#EBE13E" transform="translate(245,445)"/>
<path d="M0 0 C1.32 0 2.64 0 4 0 C4 2.31 4 4.62 4 7 C4.763125 6.95875 5.52625 6.9175 6.3125 6.875 C9 7 9 7 12 9 C12.29296875 11.3828125 12.29296875 11.3828125 12.1875 14.125 C12.16042969 15.03507812 12.13335937 15.94515625 12.10546875 16.8828125 C12.07066406 17.58148438 12.03585937 18.28015625 12 19 C10.68 19 9.36 19 8 19 C8 16.03 8 13.06 8 10 C6.68 10 5.36 10 4 10 C4 12.97 4 15.94 4 19 C2.68 19 1.36 19 0 19 C0 12.73 0 6.46 0 0 Z " fill="#C9BC43" transform="translate(368,438)"/>
<path d="M0 0 C3.125 0.375 3.125 0.375 5.5625 2 C7.125 4.375 7.125 4.375 7.0625 7.5 C6.125 10.375 6.125 10.375 3.125 12.375 C0.01045823 12.69943143 -2.03747021 12.83429053 -4.8125 11.3125 C-6.5240104 8.19151045 -5.66791991 5.72966116 -4.875 2.375 C-2.875 0.375 -2.875 0.375 0 0 Z " fill="#C7AD3D" transform="translate(474.875,444.625)"/>
<path d="M0 0 C0.99 0.66 1.98 1.32 3 2 C3.36328125 3.875 3.36328125 3.875 3.3125 6 C3.30863281 6.70125 3.30476563 7.4025 3.30078125 8.125 C3 10 3 10 1 12 C-5.00458716 12.54587156 -5.00458716 12.54587156 -7.9375 10.9375 C-9.60921702 7.88907484 -9.37033222 5.39471203 -9 2 C-5.53001271 -0.31332486 -4.07490752 -0.33957563 0 0 Z " fill="#D7B737" transform="translate(454,445)"/>
<path d="M0 0 C3 0.1875 3 0.1875 5 1.1875 C5 2.1775 5 3.1675 5 4.1875 C2.03 3.6925 2.03 3.6925 -1 3.1875 C-0.27170256 6.48371708 -0.27170256 6.48371708 3.0625 7.9375 C4.5165625 9.05125 4.5165625 9.05125 6 10.1875 C6.4375 13.875 6.4375 13.875 6 17.1875 C5 18.1875 5 18.1875 2.93359375 18.28515625 C2.10988281 18.27355469 1.28617188 18.26195312 0.4375 18.25 C-0.38878906 18.24097656 -1.21507812 18.23195313 -2.06640625 18.22265625 C-3.02353516 18.20525391 -3.02353516 18.20525391 -4 18.1875 C-4.33 16.5375 -4.66 14.8875 -5 13.1875 C-2.69 13.8475 -0.38 14.5075 2 15.1875 C2 13.8675 2 12.5475 2 11.1875 C1.030625 10.878125 0.06125 10.56875 -0.9375 10.25 C-4 9.1875 -4 9.1875 -5 8.1875 C-5.1875 5.25 -5.1875 5.25 -5 2.1875 C-3 0.1875 -3 0.1875 0 0 Z " fill="#D3D748" transform="translate(198,438.8125)"/>
<path d="M0 0 C0.99 0.66 1.98 1.32 3 2 C3.1875 4.625 3.1875 4.625 3 7 C0.03 7 -2.94 7 -6 7 C-6 7.66 -6 8.32 -6 9 C-3.69 9 -1.38 9 1 9 C1 9.99 1 10.98 1 12 C-5.34507042 12.35915493 -5.34507042 12.35915493 -7.9375 10.9375 C-9.60921702 7.88907484 -9.37033222 5.39471203 -9 2 C-5.53001271 -0.31332486 -4.07490752 -0.33957563 0 0 Z " fill="#D9C036" transform="translate(400,445)"/>
<path d="M0 0 C2.475 0.495 2.475 0.495 5 1 C5 2.32 5 3.64 5 5 C5.99 5 6.98 5 8 5 C8.33 3.35 8.66 1.7 9 0 C10.32 0 11.64 0 13 0 C13 0.99 13 1.98 13 3 C12.34 3 11.68 3 11 3 C10.7525 3.804375 10.505 4.60875 10.25 5.4375 C8.73921353 9.74324143 6.89811144 13.85364007 5 18 C3.68 18 2.36 18 1 18 C1.43525222 15.38848668 1.85031798 13.27441704 3.125 10.9375 C4.20863003 8.5380335 3.8677564 7.42971792 3 5 C2.34 5 1.68 5 1 5 C0.67 3.35 0.34 1.7 0 0 Z " fill="#DFD73B" transform="translate(256,445)"/>
<path d="M0 0 C8.625 -0.25 8.625 -0.25 12 2 C12.29296875 4.3828125 12.29296875 4.3828125 12.1875 7.125 C12.16042969 8.03507812 12.13335937 8.94515625 12.10546875 9.8828125 C12.07066406 10.58148438 12.03585937 11.28015625 12 12 C10.68 12 9.36 12 8 12 C8 9.03 8 6.06 8 3 C6.68 3.33 5.36 3.66 4 4 C3.67 6.64 3.34 9.28 3 12 C2.01 12 1.02 12 0 12 C0 8.04 0 4.08 0 0 Z " fill="#D4C940" transform="translate(311,445)"/>
<path d="M0 0 C1.32 0 2.64 0 4 0 C4 1.32 4 2.64 4 4 C4.66 4 5.32 4 6 4 C6 4.99 6 5.98 6 7 C5.34 7 4.68 7 4 7 C4 9.97 4 12.94 4 16 C2.68 16 1.36 16 0 16 C0 13.03 0 10.06 0 7 C-0.66 7 -1.32 7 -2 7 C-2 6.01 -2 5.02 -2 4 C-1.34 4 -0.68 4 0 4 C0 2.68 0 1.36 0 0 Z " fill="#D2C33E" transform="translate(351,441)"/>
<path d="M0 0 C1.32 0 2.64 0 4 0 C4 1.32 4 2.64 4 4 C4.66 4 5.32 4 6 4 C6 4.99 6 5.98 6 7 C5.34 7 4.68 7 4 7 C4 9.97 4 12.94 4 16 C2.68 16 1.36 16 0 16 C0 13.03 0 10.06 0 7 C-0.66 7 -1.32 7 -2 7 C-2 6.01 -2 5.02 -2 4 C-1.34 4 -0.68 4 0 4 C0 2.68 0 1.36 0 0 Z " fill="#D9D942" transform="translate(216,441)"/>
<path d="M0 0 C1.5625 1.125 1.5625 1.125 3 3 C2.875 6.0625 2.875 6.0625 2 9 C-1.4352048 11.29013653 -2.985331 11.17842973 -7 11 C-6.34 10.67 -5.68 10.34 -5 10 C-5.66 9.01 -6.32 8.02 -7 7 C-6.625 4.3125 -6.625 4.3125 -6 2 C-5.195625 2.185625 -4.39125 2.37125 -3.5625 2.5625 C-2.716875 2.706875 -1.87125 2.85125 -1 3 C-0.67 2.67 -0.34 2.34 0 2 C0 1.34 0 0.68 0 0 Z " fill="#BBA444" transform="translate(503,446)"/>
<path d="M0 0 C0.99 0 1.98 0 3 0 C3 6.27 3 12.54 3 19 C2.01 19 1.02 19 0 19 C0 12.73 0 6.46 0 0 Z " fill="#D7BA35" transform="translate(430,438)"/>
<path d="M0 0 C0.33 0 0.66 0 1 0 C1 2.31 1 4.62 1 7 C-1.97 7 -4.94 7 -8 7 C-8.33 5.35 -8.66 3.7 -9 2 C-6.69 2.33 -4.38 2.66 -2 3 C-1.34 2.01 -0.68 1.02 0 0 Z " fill="#F0E337" transform="translate(243,450)"/>
<path d="M0 0 C0.99 0 1.98 0 3 0 C3 3.96 3 7.92 3 12 C2.01 12 1.02 12 0 12 C0 8.04 0 4.08 0 0 Z " fill="#E2D337" transform="translate(296,445)"/>
<path d="M0 0 C2.01822917 0.29296875 4.03645833 0.5859375 6.0546875 0.87890625 C8.08140667 1.1684297 8.08140667 1.1684297 10 0 C9.125 3.875 9.125 3.875 8 5 C5.66702567 5.04092937 3.33294775 5.04241723 1 5 C0.67 3.35 0.34 1.7 0 0 Z " fill="#EAE639" transform="translate(193,452)"/>
<path d="M0 0 C1.2065625 0.0309375 1.2065625 0.0309375 2.4375 0.0625 C2.480221 1.72861905 2.47813832 3.39632885 2.4375 5.0625 C1.4375 6.0625 1.4375 6.0625 -1.125 6.125 C-2.3315625 6.0940625 -2.3315625 6.0940625 -3.5625 6.0625 C-3.605221 4.39638095 -3.60313832 2.72867115 -3.5625 1.0625 C-2.5625 0.0625 -2.5625 0.0625 0 0 Z " fill="#94AACE" transform="translate(239.5625,447.9375)"/>
<path d="M0 0 C1.65 0.33 3.3 0.66 5 1 C4.67 2.65 4.34 4.3 4 6 C2.35 5.67 0.7 5.34 -1 5 C-0.67 3.35 -0.34 1.7 0 0 Z " fill="#3A71A6" transform="translate(497,448)"/>
<path d="M0 0 C1.65 0.33 3.3 0.66 5 1 C4.67 2.65 4.34 4.3 4 6 C2.35 5.67 0.7 5.34 -1 5 C-0.67 3.35 -0.34 1.7 0 0 Z " fill="#3871A8" transform="translate(473,448)"/>
<path d="M0 0 C1.65 0.33 3.3 0.66 5 1 C4.67 2.65 4.34 4.3 4 6 C2.35 5.67 0.7 5.34 -1 5 C-0.67 3.35 -0.34 1.7 0 0 Z " fill="#3972A8" transform="translate(449,448)"/>
<path d="M0 0 C1.32 0 2.64 0 4 0 C4 2.97 4 5.94 4 9 C3.67 9 3.34 9 3 9 C2.67 6.69 2.34 4.38 2 2 C1.67 4.31 1.34 6.62 1 9 C0.34 9 -0.32 9 -1 9 C-1.09765625 2.84765625 -1.09765625 2.84765625 -1 1 C-0.67 0.67 -0.34 0.34 0 0 Z " fill="#5A8693" transform="translate(315,448)"/>
<path d="M0 0 C0.66 0.33 1.32 0.66 2 1 C-1.63 4.63 -5.26 8.26 -9 12 C-9.66 11.67 -10.32 11.34 -11 11 C-7.6189962 6.86378916 -4.33409466 3.18683431 0 0 Z " fill="#D7E3F4" transform="translate(203,306)"/>
<path d="M0 0 C1.65 0 3.3 0 5 0 C5.33 1.32 5.66 2.64 6 4 C4.35 4.33 2.7 4.66 1 5 C0.67 3.35 0.34 1.7 0 0 Z " fill="#D0232C" transform="translate(573,236)"/>
<path d="M0 0 C1.32 0.33 2.64 0.66 4 1 C4 2.65 4 4.3 4 6 C3.34 5.34 2.68 4.68 2 4 C-1.58343976 3.83322718 -1.58343976 3.83322718 -5 4 C-5 3.34 -5 2.68 -5 2 C-3.35 2 -1.7 2 0 2 C0 1.34 0 0.68 0 0 Z " fill="#9AA263" transform="translate(399,446)"/>
<path d="M0 0 C1.65 0 3.3 0 5 0 C5 3.96 5 7.92 5 12 C4.67 12 4.34 12 4 12 C3.67 10.35 3.34 8.7 3 7 C2.67 7 2.34 7 2 7 C2.04125 6.21625 2.0825 5.4325 2.125 4.625 C2.28728734 1.83883881 2.28728734 1.83883881 0 0 Z " fill="#D3D248" transform="translate(240,445)"/>
<path d="M0 0 C1.65 0.33 3.3 0.66 5 1 C5.33 2.98 5.66 4.96 6 7 C5.608125 6.525625 5.21625 6.05125 4.8125 5.5625 C2.59191626 3.64820367 0.86624291 3.38733012 -2 3 C-1.34 2.01 -0.68 1.02 0 0 Z " fill="#DCB52E" transform="translate(474,445)"/>
<path d="M0 0 C0.66 0.33 1.32 0.66 2 1 C-1.3 4.3 -4.6 7.6 -8 11 C-8 7.0234755 -6.61988497 5.9109833 -4 3 C-1.75 1.1875 -1.75 1.1875 0 0 Z " fill="#4A84C6" transform="translate(221,322)"/>
<path d="M0 0 C0.33 0.66 0.66 1.32 1 2 C1.99 1.67 2.98 1.34 4 1 C3.34 2.65 2.68 4.3 2 6 C0.68 6 -0.64 6 -2 6 C-1.125 1.125 -1.125 1.125 0 0 Z " fill="#BAC154" transform="translate(259,457)"/>
<path d="M0 0 C1.32 0 2.64 0 4 0 C4 1.32 4 2.64 4 4 C2.02 4.99 0.04 5.98 -2 7 C-2 6.01 -2 5.02 -2 4 C-1.34 4 -0.68 4 0 4 C0 2.68 0 1.36 0 0 Z " fill="#C6BD47" transform="translate(351,441)"/>
<path d="M0 0 C0.66 0.33 1.32 0.66 2 1 C1.1875 4.4375 1.1875 4.4375 0 8 C-0.99 8.33 -1.98 8.66 -3 9 C-3.1875 5.625 -3.1875 5.625 -3 2 C-2.01 1.34 -1.02 0.68 0 0 Z " fill="#C3AF42" transform="translate(448,445)"/>
<path d="M0 0 C1.98 0 3.96 0 6 0 C5.67 0.99 5.34 1.98 5 3 C3.35 3 1.7 3 0 3 C-0.33 3.66 -0.66 4.32 -1 5 C-0.67 3.35 -0.34 1.7 0 0 Z " fill="#D9C036" transform="translate(394,445)"/>
<path d="M0 0 C1.32 0 2.64 0 4 0 C4 0.99 4 1.98 4 3 C3.34 3 2.68 3 2 3 C1.67 3.66 1.34 4.32 1 5 C0.34 5 -0.32 5 -1 5 C-0.67 3.35 -0.34 1.7 0 0 Z " fill="#C9C94A" transform="translate(265,445)"/>
<path d="M0 0 C1.65 0.33 3.3 0.66 5 1 C5 1.99 5 2.98 5 4 C2.69 3.67 0.38 3.34 -2 3 C-1.34 2.01 -0.68 1.02 0 0 Z " fill="#F1EA34" transform="translate(198,439)"/>
<path d="M0 0 C1.98 0.495 1.98 0.495 4 1 C4 1.99 4 2.98 4 4 C2.35 4 0.7 4 -1 4 C-0.67 2.68 -0.34 1.36 0 0 Z " fill="#B19D4C" transform="translate(517,453)"/>
</svg>
